<?xml version="1.0" encoding="UTF-8"?>
<svg xmlns="http://www.w3.org/2000/svg" xmlns:xlink="http://www.w3.org/1999/xlink" width="30px" height="30px" viewBox="0 0 30 30" version="1.1">
<g id="surface1">
<path style=" stroke:none;fill-rule:nonzero;fill:rgb(100%,100%,100%);fill-opacity:1;" d="M 6.601562 2.398438 C 4.28125 2.398438 2.398438 4.28125 2.398438 6.601562 L 2.398438 23.398438 C 2.398438 25.71875 4.28125 27.601562 6.601562 27.601562 L 23.398438 27.601562 C 25.71875 27.601562 27.601562 25.71875 27.601562 23.398438 L 27.601562 6.601562 C 27.601562 4.28125 25.71875 2.398438 23.398438 2.398438 Z M 7.851562 7.800781 L 12.613281 7.800781 L 15.996094 12.605469 L 20.101562 7.800781 L 21.601562 7.800781 L 16.671875 13.566406 L 22.75 22.199219 L 17.988281 22.199219 L 14.0625 16.625 L 9.300781 22.199219 L 7.800781 22.199219 L 13.386719 15.664062 Z M 10.148438 9 L 18.613281 21 L 20.453125 21 L 11.988281 9 Z M 10.148438 9 "/>
</g>
</svg>
